<svg xmlns="http://www.w3.org/2000/svg" viewBox="0 0 48 48"><rect width="48" height="48" rx="12" fill="#FF385C"/><path fill="#fff" d="M24 9c-3.3 0-5.7 2.6-7.8 6.5l-7.5 13.8c-2.2 4-.3 8.7 3.9 9.9 3.5 1 6.7-.9 8.5-4.1L24 31.6l2.9 3.5c1.8 3.2 5 5.1 8.5 4.1 4.2-1.2 6.1-5.9 3.9-9.9l-7.5-13.8C29.7 11.6 27.3 9 24 9Zm-7.4 24.2c-1.1 2-2.5 2.8-3.9 2.3-1.7-.5-2.4-2.4-1.5-4.1l6.8-12.7c1.6-2.9 2.8-4.3 4-4.3s2.4 1.4 4 4.3l1.8 3.4c-1.8-.7-3.4-1.1-5.3-1.1-3 0-5.3 1.3-7.1 3.8-1.3 1.9-1.6 4.5 1.2 8.4Zm7.4-8.6c2.5 0 4.7 1.4 6.4 4.2l1.6 2.9c.9 1.7.2 3.6-1.5 4.1-1.4.5-2.8-.3-3.9-2.3L24 28.1l-2.6 5.4c-.2.4-.5.8-.8 1.2-1.1-1.9-1.2-3.5-.4-4.9 1-1.6 2.3-5.2 4.8-5.2Z"/></svg>
